# xmcd CD database file
#
# Track frame offsets:
#	150
#	20154
#	35916
#	55144
#	72919
#	92719
#	112956
#	156109
#	175586
#	192559
#	219374
#	238909
#	256686
#	272892
#	295532
#
# Disc length: 4430 seconds
#
# Revision: 0
# Processed by: cddbd v1.5.1PL2 Copyright (c) Steve Scherf et al.
# Submitted via: CDex 1.51
#
DISCID=d8114c0f
DTITLE=筋肉少女帯 - GOLDEN★BEST
DYEAR=2006
DGENRE=JPop
TTITLE0=蜘蛛の糸
TTITLE1=香菜、頭をよくしてあげよう
TTITLE2=リルカの葬列
TTITLE3=ノゾミのなくならない世界
TTITLE4=トゥルー・ロマンス（シングル・バージョン）
TTITLE5=僕の歌を総て君にやる
TTITLE6=サーチライト
TTITLE7=小さな恋のメロディ（シングル・バージョン）
TTITLE8=タチムカウ‐狂い咲く人間の証明‐
TTITLE9=２２１B戦記
TTITLE10=トキハナツ
TTITLE11=サンフランシスコ
TTITLE12=カーネーション・リインカネーション
TTITLE13=日本印度化計画(ライブ)
TTITLE14=これでいいのだ（ライブ）
EXTD=YEAR: 2006
EXTT0=
EXTT1=
EXTT2=
EXTT3=
EXTT4=
EXTT5=
EXTT6=
EXTT7=
EXTT8=
EXTT9=
EXTT10=
EXTT11=
EXTT12=
EXTT13=
EXTT14=
PLAYORDER=
